<?xml version="1.0" encoding="UTF-8" standalone="no"?>
<svg width="22px" height="19px" viewBox="0 0 22 19" version="1.1" xmlns="http://www.w3.org/2000/svg" xmlns:xlink="http://www.w3.org/1999/xlink">
    <!-- Generator: sketchtool 39 (31667) - http://www.bohemiancoding.com/sketch -->
    <title>BC4CDBC2-5027-483E-83DA-58B080D548A7</title>
    <desc>Created with sketchtool.</desc>
    <defs></defs>
    <g id="Mobile-Web" stroke="none" stroke-width="1" fill="none" fill-rule="evenodd">
        <g id="Onboarding" transform="translate(-30.000000, -974.000000)" fill="#C80C20">
            <g id="noun_70970_cc" transform="translate(30.000000, 974.000000)">
                <g id="Group">
                    <path d="M10.625,5.625 C10.3643333,5.625 10.1527778,5.835 10.1527778,6.09375 L10.1527778,11.953125 C10.1527778,12.211875 10.3643333,12.421875 10.625,12.421875 C10.8856667,12.421875 11.0972222,12.211875 11.0972222,11.953125 L11.0972222,6.09375 C11.0972222,5.835 10.8856667,5.625 10.625,5.625 L10.625,5.625 Z" id="Shape"></path>
                    <path d="M10.625,13.59375 C10.3643333,13.59375 10.1527778,13.80375 10.1527778,14.0625 L10.1527778,15 C10.1527778,15.25875 10.3643333,15.46875 10.625,15.46875 C10.8856667,15.46875 11.0972222,15.25875 11.0972222,15 L11.0972222,14.0625 C11.0972222,13.80375 10.8856667,13.59375 10.625,13.59375 L10.625,13.59375 Z" id="Shape"></path>
                    <path d="M11.9035417,0.91171875 C11.6365,0.4528125 11.1586111,0.1790625 10.625,0.1790625 C10.0913889,0.1790625 9.6135,0.4528125 9.34645833,0.91171875 L0.222652778,16.5982031 C-0.0441527778,17.0571094 -0.0441527778,17.5816406 0.222652778,18.0403125 C0.489458333,18.4992188 0.967583333,18.75 1.50119444,18.75 L19.7488056,18.75 C20.2824167,18.75 20.7605417,18.4992188 21.0273472,18.0405469 C21.2941528,17.5816406 21.2941528,17.045625 21.0273472,16.5867188 L11.9035417,0.91171875 L11.9035417,0.91171875 Z M20.2094583,17.5717969 C20.1631806,17.6510156 20.0257639,17.8125 19.7488056,17.8125 L1.50119444,17.8125 C1.22423611,17.8125 1.08681944,17.6510156 1.04054167,17.5717969 C0.994263889,17.4925781 0.901944444,17.2938281 1.04054167,17.0554688 L10.1645833,1.37460938 C10.3029444,1.13625 10.5329167,1.11351563 10.625,1.11351563 C10.7170833,1.11351563 10.9470556,1.14070313 11.0856528,1.37882813 L20.2094583,17.0545313 C20.3480556,17.2928906 20.2555,17.4923438 20.2094583,17.5717969 L20.2094583,17.5717969 Z" id="Shape"></path>
                </g>
            </g>
        </g>
    </g>
</svg>